<svg width="60" height="60" viewBox="0 0 60 60" fill="none" xmlns="http://www.w3.org/2000/svg">
<rect x="1" y="5.59015" width="58" height="53.4098" rx="9" stroke="#27496C" stroke-width="2"/>
<line x1="12.55" y1="1.60913" x2="12.55" y2="9.4452" stroke="#27496C" stroke-width="2" stroke-linecap="round"/>
<line x1="31.6" y1="1.60913" x2="31.6" y2="9.4452" stroke="#27496C" stroke-width="2" stroke-linecap="round"/>
<line x1="50.65" y1="1.60913" x2="50.65" y2="9.4452" stroke="#27496C" stroke-width="2" stroke-linecap="round"/>
<rect x="8.84998" y="14.2623" width="10.5" height="8.19672" rx="3" fill="#FFE0B2"/>
<rect x="8.84998" y="29.0164" width="10.5" height="8.19672" rx="3" fill="#C28327"/>
<rect x="8.84998" y="43.7705" width="10.5" height="8.19672" rx="3" fill="#E0E0E0"/>
<rect x="25.35" y="14.2623" width="10.5" height="8.19672" rx="3" fill="#FFE0B2"/>
<rect x="25.35" y="29.0164" width="10.5" height="8.19672" rx="3" fill="#E0E0E0"/>
<rect x="25.35" y="43.7705" width="10.5" height="8.19672" rx="3" fill="#E0E0E0"/>
<rect x="41.85" y="14.2623" width="10.5" height="8.19672" rx="3" fill="#FFE0B2"/>
<rect x="41.85" y="29.0164" width="10.5" height="8.19672" rx="3" fill="#E0E0E0"/>
<rect x="41.85" y="43.7705" width="10.5" height="8.19672" rx="3" fill="#E0E0E0"/>
</svg>
